<?xml version="1.0" encoding="UTF-8" standalone="no"?>
<!DOCTYPE svg PUBLIC "-//W3C//DTD SVG 1.1//EN"
 "http://www.w3.org/Graphics/SVG/1.1/DTD/svg11.dtd">
<!-- Generated by graphviz version 2.43.0 (0)
 -->
<!-- Title: G Pages: 1 -->
<svg width="564pt" height="892pt"
 viewBox="0.00 0.00 564.00 892.00" xmlns="http://www.w3.org/2000/svg" xmlns:xlink="http://www.w3.org/1999/xlink">
<g id="graph0" class="graph" transform="scale(1 1) rotate(0) translate(4 888)">
<title>G</title>
<polygon fill="white" stroke="transparent" points="-4,4 -4,-888 560,-888 560,4 -4,4"/>
<!-- node_d6485123515278961868 -->
<g id="node1" class="node">
<title>node_d6485123515278961868</title>
<g id="a_node1"><a xlink:href="javascript:
                    /* alert(location.pathname.match(/.*\//) + '
' + '/home/asmirnov/.pyjviz/tmp/tmp987a9g36.html' + '
' + '/home/asmirnov/.pyjviz'); */
                    { window.open(location.pathname.match(/.*\//) + 'tmp/' + 'tmp987a9g36.html', '_blank', 'width=800,height=200'); }
            " xlink:title="&lt;TABLE&gt;">
<polygon fill="#880000" fill-opacity="0.133333" stroke="#880000" stroke-opacity="0.133333" points="347.5,-884 208.5,-884 208.5,-840 347.5,-840 347.5,-884"/>
<text text-anchor="start" x="240.5" y="-865.8" font-family="Helvetica,Arial,sans-serif" font-size="14.00"> </text>
<text text-anchor="start" x="244.5" y="-865.8" font-family="Helvetica,Arial,sans-serif" font-weight="bold" font-size="14.00">ObjState#0</text>
<text text-anchor="start" x="221" y="-851.8" font-family="Helvetica,Arial,sans-serif" font-size="14.00">DataFrame (4, 4) 0</text>
</a>
</g>
</g>
<!-- node_3919599838493032725 -->
<g id="node7" class="node">
<title>node_3919599838493032725</title>
<polygon fill="lightgrey" stroke="transparent" points="456,-789 100,-789 100,-753 456,-753 456,-789"/>
<text text-anchor="start" x="112" y="-767.8" font-family="Helvetica,Arial,sans-serif" font-style="italic" font-size="14.00">remove_columns</text>
<text text-anchor="start" x="217" y="-767.8" font-family="Helvetica,Arial,sans-serif" font-size="14.00"> &#160;(</text>
<text text-anchor="start" x="230" y="-767.8" font-family="Helvetica,Arial,sans-serif" font-weight="bold" font-size="14.00">df</text>
<text text-anchor="start" x="243" y="-767.8" font-family="Helvetica,Arial,sans-serif" font-size="14.00">, column_names = [&#39;Company1&#39;])</text>
</g>
<!-- node_d6485123515278961868&#45;&gt;node_3919599838493032725 -->
<g id="edge1" class="edge">
<title>node_d6485123515278961868&#45;&gt;node_3919599838493032725</title>
<path fill="none" stroke="black" d="M278,-839.91C278,-827.78 278,-812.41 278,-799.36"/>
<polygon fill="black" stroke="black" points="281.5,-799.07 278,-789.07 274.5,-799.07 281.5,-799.07"/>
<text text-anchor="middle" x="284" y="-810.8" font-family="Helvetica,Arial,sans-serif" font-size="14.00">df</text>
</g>
<!-- node_d5908340756716255666 -->
<g id="node2" class="node">
<title>node_d5908340756716255666</title>
<g id="a_node2"><a xlink:href="javascript:
                    /* alert(location.pathname.match(/.*\//) + '
' + '/home/asmirnov/.pyjviz/tmp/tmp9bzyuxo5.html' + '
' + '/home/asmirnov/.pyjviz'); */
                    { window.open(location.pathname.match(/.*\//) + 'tmp/' + 'tmp9bzyuxo5.html', '_blank', 'width=800,height=200'); }
            " xlink:title="&lt;TABLE&gt;">
<polygon fill="#880000" fill-opacity="0.133333" stroke="#880000" stroke-opacity="0.133333" points="347.5,-716 208.5,-716 208.5,-672 347.5,-672 347.5,-716"/>
<text text-anchor="start" x="240.5" y="-697.8" font-family="Helvetica,Arial,sans-serif" font-size="14.00"> </text>
<text text-anchor="start" x="244.5" y="-697.8" font-family="Helvetica,Arial,sans-serif" font-weight="bold" font-size="14.00">ObjState#2</text>
<text text-anchor="start" x="221" y="-683.8" font-family="Helvetica,Arial,sans-serif" font-size="14.00">DataFrame (4, 3) 0</text>
</a>
</g>
</g>
<!-- node_d8363202631709685605 -->
<g id="node8" class="node">
<title>node_d8363202631709685605</title>
<polygon fill="lightgrey" stroke="transparent" points="471,-621 85,-621 85,-585 471,-585 471,-621"/>
<text text-anchor="start" x="97" y="-599.8" font-family="Helvetica,Arial,sans-serif" font-style="italic" font-size="14.00">dropna</text>
<text text-anchor="start" x="140" y="-599.8" font-family="Helvetica,Arial,sans-serif" font-size="14.00"> &#160;(</text>
<text text-anchor="start" x="153" y="-599.8" font-family="Helvetica,Arial,sans-serif" font-weight="bold" font-size="14.00">df</text>
<text text-anchor="start" x="166" y="-599.8" font-family="Helvetica,Arial,sans-serif" font-size="14.00">, kwargs = {&#39;subset&#39;: [&#39;Company2&#39;, &#39;Company3&#39;]})</text>
</g>
<!-- node_d5908340756716255666&#45;&gt;node_d8363202631709685605 -->
<g id="edge3" class="edge">
<title>node_d5908340756716255666&#45;&gt;node_d8363202631709685605</title>
<path fill="none" stroke="black" d="M278,-671.91C278,-659.78 278,-644.41 278,-631.36"/>
<polygon fill="black" stroke="black" points="281.5,-631.07 278,-621.07 274.5,-631.07 281.5,-631.07"/>
<text text-anchor="middle" x="284" y="-642.8" font-family="Helvetica,Arial,sans-serif" font-size="14.00">df</text>
</g>
<!-- node_d6969380095477579850 -->
<g id="node3" class="node">
<title>node_d6969380095477579850</title>
<g id="a_node3"><a xlink:href="javascript:
                    /* alert(location.pathname.match(/.*\//) + '
' + '/home/asmirnov/.pyjviz/tmp/tmp1kgya8pf.html' + '
' + '/home/asmirnov/.pyjviz'); */
                    { window.open(location.pathname.match(/.*\//) + 'tmp/' + 'tmp1kgya8pf.html', '_blank', 'width=800,height=200'); }
            " xlink:title="&lt;TABLE&gt;">
<polygon fill="#880000" fill-opacity="0.133333" stroke="#880000" stroke-opacity="0.133333" points="347.5,-548 208.5,-548 208.5,-504 347.5,-504 347.5,-548"/>
<text text-anchor="start" x="240.5" y="-529.8" font-family="Helvetica,Arial,sans-serif" font-size="14.00"> </text>
<text text-anchor="start" x="244.5" y="-529.8" font-family="Helvetica,Arial,sans-serif" font-weight="bold" font-size="14.00">ObjState#4</text>
<text text-anchor="start" x="221" y="-515.8" font-family="Helvetica,Arial,sans-serif" font-size="14.00">DataFrame (3, 3) 0</text>
</a>
</g>
</g>
<!-- node_6390653115990288365 -->
<g id="node9" class="node">
<title>node_6390653115990288365</title>
<polygon fill="lightgrey" stroke="transparent" points="552,-453 4,-453 4,-417 552,-417 552,-453"/>
<text text-anchor="start" x="16" y="-431.8" font-family="Helvetica,Arial,sans-serif" font-style="italic" font-size="14.00">rename_column</text>
<text text-anchor="start" x="115" y="-431.8" font-family="Helvetica,Arial,sans-serif" font-size="14.00"> &#160;(</text>
<text text-anchor="start" x="128" y="-431.8" font-family="Helvetica,Arial,sans-serif" font-weight="bold" font-size="14.00">df</text>
<text text-anchor="start" x="141" y="-431.8" font-family="Helvetica,Arial,sans-serif" font-size="14.00">, old_column_name = Company2, new_column_name = Amazon)</text>
</g>
<!-- node_d6969380095477579850&#45;&gt;node_6390653115990288365 -->
<g id="edge5" class="edge">
<title>node_d6969380095477579850&#45;&gt;node_6390653115990288365</title>
<path fill="none" stroke="black" d="M278,-503.91C278,-491.78 278,-476.41 278,-463.36"/>
<polygon fill="black" stroke="black" points="281.5,-463.07 278,-453.07 274.5,-463.07 281.5,-463.07"/>
<text text-anchor="middle" x="284" y="-474.8" font-family="Helvetica,Arial,sans-serif" font-size="14.00">df</text>
</g>
<!-- node_2408382987541826853 -->
<g id="node4" class="node">
<title>node_2408382987541826853</title>
<g id="a_node4"><a xlink:href="javascript:
                    /* alert(location.pathname.match(/.*\//) + '
' + '/home/asmirnov/.pyjviz/tmp/tmpf4mp97po.html' + '
' + '/home/asmirnov/.pyjviz'); */
                    { window.open(location.pathname.match(/.*\//) + 'tmp/' + 'tmpf4mp97po.html', '_blank', 'width=800,height=200'); }
            " xlink:title="&lt;TABLE&gt;">
<polygon fill="#880000" fill-opacity="0.133333" stroke="#880000" stroke-opacity="0.133333" points="347.5,-380 208.5,-380 208.5,-336 347.5,-336 347.5,-380"/>
<text text-anchor="start" x="240.5" y="-361.8" font-family="Helvetica,Arial,sans-serif" font-size="14.00"> </text>
<text text-anchor="start" x="244.5" y="-361.8" font-family="Helvetica,Arial,sans-serif" font-weight="bold" font-size="14.00">ObjState#6</text>
<text text-anchor="start" x="221" y="-347.8" font-family="Helvetica,Arial,sans-serif" font-size="14.00">DataFrame (3, 3) 0</text>
</a>
</g>
</g>
<!-- node_3517701665131764361 -->
<g id="node10" class="node">
<title>node_3517701665131764361</title>
<polygon fill="lightgrey" stroke="transparent" points="556,-285 0,-285 0,-249 556,-249 556,-285"/>
<text text-anchor="start" x="12" y="-263.8" font-family="Helvetica,Arial,sans-serif" font-style="italic" font-size="14.00">rename_column</text>
<text text-anchor="start" x="111" y="-263.8" font-family="Helvetica,Arial,sans-serif" font-size="14.00"> &#160;(</text>
<text text-anchor="start" x="124" y="-263.8" font-family="Helvetica,Arial,sans-serif" font-weight="bold" font-size="14.00">df</text>
<text text-anchor="start" x="137" y="-263.8" font-family="Helvetica,Arial,sans-serif" font-size="14.00">, old_column_name = Company3, new_column_name = Facebook)</text>
</g>
<!-- node_2408382987541826853&#45;&gt;node_3517701665131764361 -->
<g id="edge7" class="edge">
<title>node_2408382987541826853&#45;&gt;node_3517701665131764361</title>
<path fill="none" stroke="black" d="M278,-335.91C278,-323.78 278,-308.41 278,-295.36"/>
<polygon fill="black" stroke="black" points="281.5,-295.07 278,-285.07 274.5,-295.07 281.5,-295.07"/>
<text text-anchor="middle" x="284" y="-306.8" font-family="Helvetica,Arial,sans-serif" font-size="14.00">df</text>
</g>
<!-- node_183209119758371432 -->
<g id="node5" class="node">
<title>node_183209119758371432</title>
<g id="a_node5"><a xlink:href="javascript:
                    /* alert(location.pathname.match(/.*\//) + '
' + '/home/asmirnov/.pyjviz/tmp/tmpul6mvb3o.html' + '
' + '/home/asmirnov/.pyjviz'); */
                    { window.open(location.pathname.match(/.*\//) + 'tmp/' + 'tmpul6mvb3o.html', '_blank', 'width=800,height=200'); }
            " xlink:title="&lt;TABLE&gt;">
<polygon fill="#880000" fill-opacity="0.133333" stroke="#880000" stroke-opacity="0.133333" points="347.5,-212 208.5,-212 208.5,-168 347.5,-168 347.5,-212"/>
<text text-anchor="start" x="240.5" y="-193.8" font-family="Helvetica,Arial,sans-serif" font-size="14.00"> </text>
<text text-anchor="start" x="244.5" y="-193.8" font-family="Helvetica,Arial,sans-serif" font-weight="bold" font-size="14.00">ObjState#8</text>
<text text-anchor="start" x="221" y="-179.8" font-family="Helvetica,Arial,sans-serif" font-size="14.00">DataFrame (3, 3) 0</text>
</a>
</g>
</g>
<!-- node_3532573444155032818 -->
<g id="node11" class="node">
<title>node_3532573444155032818</title>
<polygon fill="lightgrey" stroke="transparent" points="509.5,-117 46.5,-117 46.5,-81 509.5,-81 509.5,-117"/>
<text text-anchor="start" x="59" y="-95.8" font-family="Helvetica,Arial,sans-serif" font-style="italic" font-size="14.00">add_column</text>
<text text-anchor="start" x="134" y="-95.8" font-family="Helvetica,Arial,sans-serif" font-size="14.00"> &#160;(</text>
<text text-anchor="start" x="147" y="-95.8" font-family="Helvetica,Arial,sans-serif" font-weight="bold" font-size="14.00">df</text>
<text text-anchor="start" x="160" y="-95.8" font-family="Helvetica,Arial,sans-serif" font-size="14.00">, column_name = Google, value = [450.0, 550.0, 800.0])</text>
</g>
<!-- node_183209119758371432&#45;&gt;node_3532573444155032818 -->
<g id="edge9" class="edge">
<title>node_183209119758371432&#45;&gt;node_3532573444155032818</title>
<path fill="none" stroke="black" d="M278,-167.91C278,-155.78 278,-140.41 278,-127.36"/>
<polygon fill="black" stroke="black" points="281.5,-127.07 278,-117.07 274.5,-127.07 281.5,-127.07"/>
<text text-anchor="middle" x="284" y="-138.8" font-family="Helvetica,Arial,sans-serif" font-size="14.00">df</text>
</g>
<!-- node_5563830961895249986 -->
<g id="node6" class="node">
<title>node_5563830961895249986</title>
<g id="a_node6"><a xlink:href="javascript:
                    /* alert(location.pathname.match(/.*\//) + '
' + '/home/asmirnov/.pyjviz/tmp/tmphyl44fvd.html' + '
' + '/home/asmirnov/.pyjviz'); */
                    { window.open(location.pathname.match(/.*\//) + 'tmp/' + 'tmphyl44fvd.html', '_blank', 'width=800,height=200'); }
            " xlink:title="&lt;TABLE&gt;">
<polygon fill="#880000" fill-opacity="0.133333" stroke="#880000" stroke-opacity="0.133333" points="347.5,-44 208.5,-44 208.5,0 347.5,0 347.5,-44"/>
<text text-anchor="start" x="237" y="-25.8" font-family="Helvetica,Arial,sans-serif" font-size="14.00"> </text>
<text text-anchor="start" x="241" y="-25.8" font-family="Helvetica,Arial,sans-serif" font-weight="bold" font-size="14.00">ObjState#10</text>
<text text-anchor="start" x="221" y="-11.8" font-family="Helvetica,Arial,sans-serif" font-size="14.00">DataFrame (3, 4) 0</text>
</a>
</g>
</g>
<!-- node_3919599838493032725&#45;&gt;node_d5908340756716255666 -->
<g id="edge2" class="edge">
<title>node_3919599838493032725&#45;&gt;node_d5908340756716255666</title>
<path fill="none" stroke="black" d="M278,-752.98C278,-745.15 278,-735.61 278,-726.54"/>
<polygon fill="black" stroke="black" points="281.5,-726.24 278,-716.24 274.5,-726.24 281.5,-726.24"/>
</g>
<!-- node_d8363202631709685605&#45;&gt;node_d6969380095477579850 -->
<g id="edge4" class="edge">
<title>node_d8363202631709685605&#45;&gt;node_d6969380095477579850</title>
<path fill="none" stroke="black" d="M278,-584.98C278,-577.15 278,-567.61 278,-558.54"/>
<polygon fill="black" stroke="black" points="281.5,-558.24 278,-548.24 274.5,-558.24 281.5,-558.24"/>
</g>
<!-- node_6390653115990288365&#45;&gt;node_2408382987541826853 -->
<g id="edge6" class="edge">
<title>node_6390653115990288365&#45;&gt;node_2408382987541826853</title>
<path fill="none" stroke="black" d="M278,-416.98C278,-409.15 278,-399.61 278,-390.54"/>
<polygon fill="black" stroke="black" points="281.5,-390.24 278,-380.24 274.5,-390.24 281.5,-390.24"/>
</g>
<!-- node_3517701665131764361&#45;&gt;node_183209119758371432 -->
<g id="edge8" class="edge">
<title>node_3517701665131764361&#45;&gt;node_183209119758371432</title>
<path fill="none" stroke="black" d="M278,-248.98C278,-241.15 278,-231.61 278,-222.54"/>
<polygon fill="black" stroke="black" points="281.5,-222.24 278,-212.24 274.5,-222.24 281.5,-222.24"/>
</g>
<!-- node_3532573444155032818&#45;&gt;node_5563830961895249986 -->
<g id="edge10" class="edge">
<title>node_3532573444155032818&#45;&gt;node_5563830961895249986</title>
<path fill="none" stroke="black" d="M278,-80.98C278,-73.15 278,-63.61 278,-54.54"/>
<polygon fill="black" stroke="black" points="281.5,-54.24 278,-44.24 274.5,-54.24 281.5,-54.24"/>
</g>
</g>
</svg>
